<svg width="240" height="61" viewBox="0 0 240 61" fill="none" xmlns="http://www.w3.org/2000/svg">
<path d="M91.5518 36.6725C91.0503 39.5478 89.8756 41.7504 88.0278 43.2803C86.18 44.8103 83.9098 45.5752 81.2173 45.5752C78.2081 45.5752 75.6871 44.5861 73.6546 42.6077C72.3611 41.3151 71.556 39.9039 71.2392 38.3739C70.9488 36.8176 70.8037 34.4436 70.8037 31.2518C70.8037 28.06 70.9488 25.6991 71.2392 24.1692C71.556 22.6129 72.3611 21.1884 73.6546 19.8959C75.6871 17.9175 78.2081 16.9283 81.2173 16.9283C83.9098 16.9283 86.18 17.6933 88.0278 19.2232C89.8756 20.7532 91.0503 22.9558 91.5518 25.831H85.9292C85.2957 23.1668 83.7251 21.8347 81.2173 21.8347C79.7127 21.8347 78.538 22.3227 77.6933 23.2987C77.1654 23.9054 76.7958 24.7363 76.5846 25.7915C76.3999 26.8202 76.3075 28.6403 76.3075 31.2518C76.3075 33.8632 76.3999 35.6965 76.5846 36.7517C76.7958 37.7804 77.1654 38.5982 77.6933 39.2049C78.538 40.1809 79.7127 40.6689 81.2173 40.6689C83.7514 40.6689 85.3353 39.3368 85.9688 36.6725H91.5518Z" fill="black"/>
<path d="M121.658 45.3378H115.917L114.254 40.3523H104.236L102.534 45.3378H96.7923L107.048 17.1657H111.364L121.658 45.3378ZM112.789 35.7229L109.344 25.4749L105.781 35.7229H112.789Z" fill="black"/>
<path d="M150.432 45.3378H144.058L138.554 34.1006H134.594V45.3378H129.09V17.1657H140.138C142.936 17.1657 145.153 17.9966 146.79 19.6585C148.453 21.3203 149.284 23.3646 149.284 25.7915C149.284 27.6643 148.796 29.2338 147.819 30.5C146.842 31.7662 145.615 32.663 144.137 33.1906L150.432 45.3378ZM142.672 28.4821C143.411 27.7962 143.78 26.8993 143.78 25.7915C143.78 24.6836 143.411 23.7867 142.672 23.1009C141.933 22.415 140.969 22.0721 139.781 22.0721H134.594V29.5108H139.781C140.969 29.5108 141.933 29.1679 142.672 28.4821Z" fill="black"/>
<path d="M179.389 37.2265C179.389 39.7852 178.597 41.7768 177.013 43.2012C175.429 44.6256 173.344 45.3378 170.757 45.3378H158.957V17.1657H170.282C173.001 17.1657 175.125 17.8779 176.657 19.3024C178.214 20.7268 178.993 22.6524 178.993 25.0792C178.993 26.5037 178.623 27.7303 177.884 28.759C177.171 29.7614 176.379 30.4736 175.508 30.8957C178.095 32.1091 179.389 34.2194 179.389 37.2265ZM172.935 39.4423C173.568 38.7828 173.885 37.9519 173.885 36.9495C173.885 35.9471 173.568 35.1294 172.935 34.4963C172.301 33.8369 171.39 33.5071 170.202 33.5071H164.461V40.4315H170.202C171.39 40.4315 172.301 40.1017 172.935 39.4423ZM172.539 27.6907C173.172 27.084 173.489 26.2926 173.489 25.3166C173.489 24.3406 173.172 23.5625 172.539 22.9822C171.905 22.3755 171.008 22.0721 169.846 22.0721H164.461V28.5612H169.846C171.008 28.5612 171.905 28.271 172.539 27.6907Z" fill="black"/>
<path d="M208.381 24.1692C208.697 25.7255 208.856 28.0864 208.856 31.2518C208.856 34.4172 208.697 36.7781 208.381 38.3344C208.064 39.8907 207.259 41.3151 205.965 42.6077C203.986 44.5861 201.478 45.5752 198.442 45.5752C195.38 45.5752 192.859 44.5861 190.879 42.6077C189.586 41.3151 188.781 39.9039 188.464 38.3739C188.174 36.8176 188.029 34.4436 188.029 31.2518C188.029 28.06 188.174 25.6991 188.464 24.1692C188.781 22.6129 189.586 21.1884 190.879 19.8959C192.859 17.9175 195.38 16.9283 198.442 16.9283C201.478 16.9283 203.986 17.9175 205.965 19.8959C207.259 21.1884 208.064 22.6129 208.381 24.1692ZM203.352 31.2518C203.352 28.6403 203.246 26.8202 203.035 25.7915C202.85 24.7627 202.494 23.945 201.966 23.3383C201.095 22.3359 199.92 21.8347 198.442 21.8347C196.99 21.8347 195.802 22.3359 194.879 23.3383C194.351 23.945 193.994 24.7627 193.809 25.7915C193.625 26.8202 193.532 28.6403 193.532 31.2518C193.532 33.8632 193.625 35.6833 193.809 36.7121C193.994 37.7145 194.351 38.519 194.879 39.1257C195.829 40.1545 197.017 40.6689 198.442 40.6689C199.894 40.6689 201.069 40.1545 201.966 39.1257C202.494 38.4926 202.85 37.6749 203.035 36.6725C203.246 35.6438 203.352 33.8369 203.352 31.2518Z" fill="black"/>
<path d="M240 45.3378H235.09L223.924 28.0468V45.3378H218.42V17.1657H223.33L234.496 34.4172V17.1657H240V45.3378Z" fill="black"/>
<path d="M0 16.8914C0 15.7175 0.525661 14.8222 1.57698 14.1955L24.7953 0.467547C25.4202 0.159165 25.9458 0 26.3723 0C26.8781 0 27.4038 0.159165 27.9493 0.467547L51.2768 14.1955C52.2884 14.8222 52.7942 15.7175 52.7942 16.8914V44.1086C52.7942 45.2825 52.2884 46.1778 51.2768 46.8045L27.9493 60.5324C27.6716 60.7314 27.4038 60.8508 27.1261 60.9105C26.8484 60.9702 26.6004 61 26.3624 61C25.8169 61 25.2912 60.8408 24.7854 60.5324L1.56707 46.8045C0.525661 46.1778 0 45.2725 0 44.1086V16.8914Z" fill="black"/>
</svg>
